<svg id="Capa_1" enable-background="new 0 0 512 512" height="512" viewBox="0 0 512 512" width="512" xmlns="http://www.w3.org/2000/svg"><g><path d="m512 256c0 71.76-29.53 136.62-77.09 183.11-13.134 12.833-50.004-2.593-65.646 7.195-22.326 13.97-24.6 51.451-50.844 58.025-19.98 5.01-40.89 7.67-62.42 7.67s-42.44-2.66-62.42-7.67c-44.63-11.18-84.61-34.07-116.49-65.22-47.56-46.49-77.09-111.35-77.09-183.11s29.53-136.62 77.09-183.11c31.41-30.68 70.67-53.35 114.48-64.71 20.59-5.34 42.18-8.18 64.43-8.18s43.84 2.84 64.43 8.18c43.81 11.36 83.07 34.03 114.48 64.71 47.56 46.49 77.09 111.35 77.09 183.11z" fill="#6978d8"/><g><g fill="#362a40"><path d="m431.769 189.417h-63.037v-110.736h63.037c8.161 0 14.777 6.616 14.777 14.777v81.182c0 8.161-6.616 14.777-14.777 14.777z"/><path d="m75.761 102.624h67.508v53.872h-67.508c-5.692 0-10.307-4.615-10.307-10.307v-33.258c0-5.693 4.615-10.307 10.307-10.307z"/><path d="m75.761 168.134h67.508v53.872h-67.508c-5.692 0-10.307-4.615-10.307-10.307v-33.258c0-5.692 4.615-10.307 10.307-10.307z"/></g><path d="m434.91 64.3v374.81c-6.74 6.58-13.84 12.8-21.27 18.6-4.318 3.383-39.843-14.508-44.376-11.405-9.093 6.224 12.49 33.007 2.606 38.025-16.83 8.56-34.73 15.31-53.45 20h-185.21c-30.99 0-56.12-25.12-56.12-56.12v-383.91c0-30.99 25.13-56.12 56.12-56.12h245.58c30.99 0 56.12 25.13 56.12 56.12z" fill="#50405a"/><path d="m156.163 504.331h-22.95c-30.99 0-56.12-25.12-56.12-56.12v-383.91c0-30.99 25.13-56.12 56.12-56.12h22.95c-31 0-56.12 25.13-56.12 56.12v383.91c0 31 25.12 56.12 56.12 56.12z" fill="#362a40"/><path d="m414.91 64.3v383.91c0 3.29-.44 6.47-1.27 9.5-12.98 10.17-26.96 19.1-41.77 26.62h-238.66c-19.91 0-36.12-16.2-36.12-36.12v-383.91c0-19.91 16.21-36.12 36.12-36.12h245.58c19.91 0 36.12 16.21 36.12 36.12z" fill="#e9eeff"/><path d="m160.143 484.331h-26.93c-19.92 0-36.12-16.2-36.12-36.12v-383.91c0-19.91 16.2-36.12 36.12-36.12h26.93c-19.91 0-36.11 16.21-36.11 36.12v383.91c0 19.92 16.2 36.12 36.11 36.12z" fill="#d4daf8"/><path d="m256 76.021c-18.733 0-33.919-15.186-33.919-33.919v-33.92h67.838v33.919c0 18.733-15.186 33.92-33.919 33.92z" fill="#50405a"/><circle cx="256" cy="42.101" fill="#362a40" r="13.919"/></g><g fill="#d4daf8"><path d="m211.968 163.479h147.89c10.677 0 19.333-8.656 19.333-19.333v-27.177c0-10.677-8.656-19.333-19.333-19.333h-147.89c-10.677 0-19.333 8.656-19.333 19.333v27.177c0 10.677 8.656 19.333 19.333 19.333z"/><path d="m151.115 253.515h147.89c10.677 0 19.333-8.656 19.333-19.333v-27.177c0-10.677-8.656-19.333-19.333-19.333h-147.89c-10.677 0-19.333 8.656-19.333 19.333v27.177c0 10.677 8.656 19.333 19.333 19.333z"/><path d="m229.75 343.55h147.89c10.677 0 19.333-8.656 19.333-19.333v-27.177c0-10.677-8.656-19.333-19.333-19.333h-147.89c-10.677 0-19.333 8.656-19.333 19.333v27.177c0 10.678 8.656 19.333 19.333 19.333z"/><path d="m131.129 433.586h147.89c10.677 0 19.333-8.656 19.333-19.333v-27.177c0-10.677-8.656-19.333-19.333-19.333h-147.89c-10.677 0-19.333 8.656-19.333 19.333v27.177c.001 10.677 8.656 19.333 19.333 19.333z"/></g><path d="m210.77 181.436h-154.986c-21.941 0-39.727-17.787-39.727-39.727v-62.208c0-21.941 17.787-39.727 39.727-39.727h154.986c21.941 0 39.727 17.787 39.727 39.727v62.208c.001 21.94-17.786 39.727-39.727 39.727z" fill="#78c378"/><g fill="#50405a"><path d="m217.36 91.539h-130.922c-6.272 0-11.356-5.084-11.356-11.356v-.233c0-6.272 5.084-11.356 11.356-11.356h130.922c6.272 0 11.356 5.084 11.356 11.356v.234c0 6.271-5.084 11.355-11.356 11.355z"/><path d="m187.912 130.446h-101.357c-6.336 0-11.473-5.136-11.473-11.473 0-6.336 5.136-11.473 11.473-11.473h101.357c6.336 0 11.473 5.136 11.473 11.473 0 6.337-5.136 11.473-11.473 11.473z"/></g><path d="m434.238 329.084h-154.987c-21.941 0-39.727-17.787-39.727-39.727v-62.208c0-21.941 17.787-39.727 39.727-39.727h154.987c21.941 0 39.727 17.787 39.727 39.727v62.208c0 21.941-17.786 39.727-39.727 39.727z" fill="#6daef7"/><g fill="#50405a"><path d="m440.828 239.187h-130.922c-6.272 0-11.356-5.084-11.356-11.356v-.234c0-6.272 5.084-11.356 11.356-11.356h130.922c6.272 0 11.356 5.084 11.356 11.356v.234c0 6.272-5.084 11.356-11.356 11.356z"/><path d="m411.38 278.095h-101.358c-6.336 0-11.473-5.137-11.473-11.473 0-6.336 5.136-11.473 11.473-11.473h101.358c6.336 0 11.473 5.136 11.473 11.473 0 6.336-5.137 11.473-11.473 11.473z"/></g><path d="m207.777 455.782h-154.986c-21.941 0-39.727-17.787-39.727-39.727v-62.208c0-21.941 17.787-39.727 39.727-39.727h154.987c21.941 0 39.727 17.787 39.727 39.727v62.208c0 21.941-17.787 39.727-39.728 39.727z" fill="#78c378"/><g fill="#50405a"><path d="m214.368 365.885h-130.923c-6.272 0-11.356-5.084-11.356-11.356v-.234c0-6.272 5.084-11.356 11.356-11.356h130.922c6.272 0 11.356 5.084 11.356 11.356v.234c0 6.272-5.084 11.356-11.355 11.356z"/><path d="m184.919 404.793h-101.357c-6.336 0-11.473-5.136-11.473-11.473 0-6.336 5.136-11.473 11.473-11.473h101.357c6.336 0 11.473 5.137 11.473 11.473 0 6.336-5.136 11.473-11.473 11.473z"/></g><g fill="#50405a"><circle cx="380.736" cy="446.305" r="11.473"/><circle cx="348.951" cy="446.305" r="11.473"/><circle cx="317.165" cy="446.305" r="11.473"/></g><path d="m81.726 181.441h-25.94c-21.94 0-39.73-17.79-39.73-39.73v-62.21c0-21.94 17.79-39.73 39.73-39.73h25.94c-21.94 0-39.73 17.79-39.73 39.73v62.21c0 21.94 17.79 39.73 39.73 39.73z" fill="#5fa258"/><path d="m78.733 455.785h-25.94c-21.94 0-39.73-17.79-39.73-39.73v-62.21c0-21.94 17.79-39.73 39.73-39.73h25.94c-21.94 0-39.73 17.79-39.73 39.73v62.21c0 21.94 17.79 39.73 39.73 39.73z" fill="#5fa258"/><path d="m305.194 329.087h-25.94c-21.94 0-39.73-17.79-39.73-39.73v-62.21c0-21.94 17.79-39.73 39.73-39.73h25.94c-21.94 0-39.73 17.79-39.73 39.73v62.21c0 21.94 17.79 39.73 39.73 39.73z" fill="#5892e6"/></g></svg>