<svg height="512" width="512" xmlns="http://www.w3.org/2000/svg"><path d="M512 256c0 71.76-29.53 136.62-77.09 183.11-13.134 12.833-50.004-2.593-65.646 7.195-22.326 13.97-24.6 51.451-50.844 58.025-19.98 5.01-40.89 7.67-62.42 7.67s-42.44-2.66-62.42-7.67c-44.63-11.18-84.61-34.07-116.49-65.22C29.53 392.62 0 327.76 0 256S29.53 119.38 77.09 72.89c31.41-30.68 70.67-53.35 114.48-64.71C212.16 2.84 233.75 0 256 0s43.84 2.84 64.43 8.18c43.81 11.36 83.07 34.03 114.48 64.71C482.47 119.38 512 184.24 512 256z" fill="#6978d8"/><path d="M431.769 189.417h-63.037V78.681h63.037c8.161 0 14.777 6.616 14.777 14.777v81.182c0 8.161-6.616 14.777-14.777 14.777zM75.761 102.624h67.508v53.872H75.761c-5.692 0-10.307-4.615-10.307-10.307v-33.258c0-5.693 4.615-10.307 10.307-10.307zm0 65.51h67.508v53.872H75.761c-5.692 0-10.307-4.615-10.307-10.307v-33.258c0-5.692 4.615-10.307 10.307-10.307z" fill="#362a40"/><path d="M434.91 64.3v374.81c-6.74 6.58-13.84 12.8-21.27 18.6-4.318 3.383-39.843-14.508-44.376-11.405-9.093 6.224 12.49 33.007 2.606 38.025a254.04 254.04 0 01-53.45 20H133.21c-30.99 0-56.12-25.12-56.12-56.12V64.3c0-30.99 25.13-56.12 56.12-56.12h245.58c30.99 0 56.12 25.13 56.12 56.12z" fill="#50405a"/><path d="M156.163 504.331h-22.95c-30.99 0-56.12-25.12-56.12-56.12V64.301c0-30.99 25.13-56.12 56.12-56.12h22.95c-31 0-56.12 25.13-56.12 56.12v383.91c0 31 25.12 56.12 56.12 56.12z" fill="#362a40"/><path d="M414.91 64.3v383.91c0 3.29-.44 6.47-1.27 9.5a254.71 254.71 0 01-41.77 26.62H133.21c-19.91 0-36.12-16.2-36.12-36.12V64.3c0-19.91 16.21-36.12 36.12-36.12h245.58c19.91 0 36.12 16.21 36.12 36.12z" fill="#e9eeff"/><path d="M160.143 484.331h-26.93c-19.92 0-36.12-16.2-36.12-36.12V64.301c0-19.91 16.2-36.12 36.12-36.12h26.93c-19.91 0-36.11 16.21-36.11 36.12v383.91c0 19.92 16.2 36.12 36.11 36.12z" fill="#d4daf8"/><path d="M256 76.021c-18.733 0-33.919-15.186-33.919-33.919V8.182h67.838v33.919c0 18.733-15.186 33.92-33.919 33.92z" fill="#50405a"/><circle cx="256" cy="42.101" fill="#362a40" r="13.919"/><path d="M211.968 163.479h147.89c10.677 0 19.333-8.656 19.333-19.333v-27.177c0-10.677-8.656-19.333-19.333-19.333h-147.89c-10.677 0-19.333 8.656-19.333 19.333v27.177c0 10.677 8.656 19.333 19.333 19.333zm-60.853 90.036h147.89c10.677 0 19.333-8.656 19.333-19.333v-27.177c0-10.677-8.656-19.333-19.333-19.333h-147.89c-10.677 0-19.333 8.656-19.333 19.333v27.177c0 10.677 8.656 19.333 19.333 19.333zm78.635 90.035h147.89c10.677 0 19.333-8.656 19.333-19.333V297.04c0-10.677-8.656-19.333-19.333-19.333H229.75c-10.677 0-19.333 8.656-19.333 19.333v27.177c0 10.678 8.656 19.333 19.333 19.333zm-98.621 90.036h147.89c10.677 0 19.333-8.656 19.333-19.333v-27.177c0-10.677-8.656-19.333-19.333-19.333h-147.89c-10.677 0-19.333 8.656-19.333 19.333v27.177c.001 10.677 8.656 19.333 19.333 19.333z" fill="#d4daf8"/><path d="M210.77 181.436H55.784c-21.941 0-39.727-17.787-39.727-39.727V79.501c0-21.941 17.787-39.727 39.727-39.727H210.77c21.941 0 39.727 17.787 39.727 39.727v62.208c.001 21.94-17.786 39.727-39.727 39.727z" fill="#78c378"/><path d="M217.36 91.539H86.438c-6.272 0-11.356-5.084-11.356-11.356v-.233c0-6.272 5.084-11.356 11.356-11.356H217.36c6.272 0 11.356 5.084 11.356 11.356v.234c0 6.271-5.084 11.355-11.356 11.355zm-29.448 38.907H86.555c-6.336 0-11.473-5.136-11.473-11.473 0-6.336 5.136-11.473 11.473-11.473h101.357c6.336 0 11.473 5.136 11.473 11.473 0 6.337-5.136 11.473-11.473 11.473z" fill="#50405a"/><path d="M434.238 329.084H279.251c-21.941 0-39.727-17.787-39.727-39.727v-62.208c0-21.941 17.787-39.727 39.727-39.727h154.987c21.941 0 39.727 17.787 39.727 39.727v62.208c0 21.941-17.786 39.727-39.727 39.727z" fill="#6daef7"/><path d="M440.828 239.187H309.906c-6.272 0-11.356-5.084-11.356-11.356v-.234c0-6.272 5.084-11.356 11.356-11.356h130.922c6.272 0 11.356 5.084 11.356 11.356v.234c0 6.272-5.084 11.356-11.356 11.356zm-29.448 38.908H310.022c-6.336 0-11.473-5.137-11.473-11.473 0-6.336 5.136-11.473 11.473-11.473H411.38c6.336 0 11.473 5.136 11.473 11.473 0 6.336-5.137 11.473-11.473 11.473z" fill="#50405a"/><path d="M207.777 455.782H52.791c-21.941 0-39.727-17.787-39.727-39.727v-62.208c0-21.941 17.787-39.727 39.727-39.727h154.987c21.941 0 39.727 17.787 39.727 39.727v62.208c0 21.941-17.787 39.727-39.728 39.727z" fill="#78c378"/><path d="M214.368 365.885H83.445c-6.272 0-11.356-5.084-11.356-11.356v-.234c0-6.272 5.084-11.356 11.356-11.356h130.922c6.272 0 11.356 5.084 11.356 11.356v.234c0 6.272-5.084 11.356-11.355 11.356zm-29.449 38.908H83.562c-6.336 0-11.473-5.136-11.473-11.473 0-6.336 5.136-11.473 11.473-11.473h101.357c6.336 0 11.473 5.137 11.473 11.473 0 6.336-5.136 11.473-11.473 11.473z" fill="#50405a"/><g fill="#50405a"><circle cx="380.736" cy="446.305" r="11.473"/><circle cx="348.951" cy="446.305" r="11.473"/><circle cx="317.165" cy="446.305" r="11.473"/></g><path d="M81.726 181.441h-25.94c-21.94 0-39.73-17.79-39.73-39.73v-62.21c0-21.94 17.79-39.73 39.73-39.73h25.94c-21.94 0-39.73 17.79-39.73 39.73v62.21c0 21.94 17.79 39.73 39.73 39.73zm-2.993 274.344h-25.94c-21.94 0-39.73-17.79-39.73-39.73v-62.21c0-21.94 17.79-39.73 39.73-39.73h25.94c-21.94 0-39.73 17.79-39.73 39.73v62.21c0 21.94 17.79 39.73 39.73 39.73z" fill="#5fa258"/><path d="M305.194 329.087h-25.94c-21.94 0-39.73-17.79-39.73-39.73v-62.21c0-21.94 17.79-39.73 39.73-39.73h25.94c-21.94 0-39.73 17.79-39.73 39.73v62.21c0 21.94 17.79 39.73 39.73 39.73z" fill="#5892e6"/></svg>